<?xml version="1.0" encoding="UTF-8"?>
<svg id="_图层_1" data-name="图层_1" xmlns="http://www.w3.org/2000/svg" width="1024" height="1024" version="1.1" viewBox="0 0 1024 1024">
  <!-- Generator: Adobe Illustrator 30.1.0, SVG Export Plug-In . SVG Version: 2.1.1 Build 136)  -->
  <defs>
    <style>
      .st0 {
        fill: #01b837;
      }

      .st1 {
        fill: #015dc3;
      }

      .st2 {
        fill: #ed3901;
      }

      .st3 {
        fill: #0194d8;
      }

      .st4 {
        fill: #0094d8;
      }
    </style>
  </defs>
  <path class="st0" d="M512.08,74.13l-.22,118.04.15,10.93-.04,50.41-99.31.2-.43,6.77-32.74.12-.19,31.03-33.85.13-.2,31.3-32.89.09-.21,31.41c-12.8.71-21.08-.65-33.37.41l-.19,33.6c-.01,2.34-.18,4.51-.08,6.84.26,5.71.49,11.29.09,17.03l-.35,5.01-32.95.16v21.69s.22,166.57.22,166.57l33.29-.02.18,63.07,33.39-.1.27,30.99,33.15.08.23,31.43,33.37.22.14,30.8,26.7.15c2.1.01,4.39.28,6.45.53l.46,6.74,92.5-.07c2.39,0,4.38-.16,6.35-.33-.64,2.16-.07,4.16-.08,6.71l-.07,112.43-.07,23.4.05,6.85-.02,18.56.16,10.78-43.69.34c-.62,0-1.45.37-1.66.07-.16-.23-.5-1.08-.6-1.59l-8.65-43.3-6.67-32.65c-9.75-1.86-18.58-3.88-27.83-6.42-6.21-1.71-12.24-3.16-18.31-5.22l-17.41-5.9-6.16,7.2-34.58,39.28-9.7,11.27c-.43.5-1.64,2.01-2.21,1.77l-20.61-12.21-5.81-3.37-7.52-4.46-27.85-15.97-12.64-7.3c-1.25-.72-4.57-1.86-4.33-3.79.51-4.08,2.05-7.71,3.35-11.61l13.49-40.61,7.35-21.85c.44-1.32-2.1-2.94-2.95-3.74l-13.92-12.98c-6.74-6.29-12.94-12.62-19.05-19.54l-11.2-12.68-74.35,25.88c-1.6.56-2.87-.03-3.63-1.38l-13.6-24.35-2.41-3.89-3.34-5.81-7.43-12.56-12.7-21.33-3.07-5.67c-.65-1.19-1.65-3.18-1.02-4.59l48.85-43.04,11.63-9.93-2.94-10.65-3.19-10.56c-3.16-10.45-5.81-20.7-7.99-31.32l-.94-4.58-1.15-5.76-27.98-5.74-8.84-1.97-27.67-5.32-15.96-2.92-.03-87.99c0-1.63.55-2.81,2.01-3.09l37.81-7.25,40.35-8.23,5.74-26.04c1.04-4.73,2.41-9.26,3.8-13.93l7-23.56c-1.9-2.34-3.85-3.91-6.08-5.75l-4.1-3.38-26.99-22.95-13.99-11.73-7.75-6.44c-.73-.61-1.82-1.61-1.84-2.35s.58-2.32,1-3l4.36-7.18,3.14-5.94,5.31-8.93,2.14-3.58,11.26-19.33,2.17-4,9.23-15.85,6.56-11.25c2.12-.35,4.32.34,6.4,1.04l28.61,9.57,14.73,5.18,17.5,5.89c2.95.99,5.43,2.16,8.63,2.83l11.81-13.05c7.71-8.52,24.15-24.64,32.91-31.76,1.32-1.07,2.64-2.2,3.39-3.83l-16.05-46.09-7.43-22.83c-.67-2.05-2.09-4.91-1.4-6.9.64-1.86,3.37-2.62,4.89-3.48l29.79-16.87,19.76-11.02,13.63-7.97,9.58-5.41c2.39,1.5,4.42,3.37,6.28,5.59l15.61,18.54,26.64,30.77c1.6,1.85,3.17,3.98,5.26,5.27l12.18-4.29c4.63-1.63,9.27-3.23,14.12-4.55l18.42-5.01,19.39-5.01,9.01-43.89,6.94-34.36,45.3.15Z"/>
  <path class="st2" d="M511.97,948.1l-.16-10.78.02-18.56-.05-6.85.07-23.4.07-112.43c0-2.54-.56-4.55.08-6.71l9.14-.79,9.66-.59c12.85-.79,32.5-4.88,45.05-8.32,14.29-3.92,27.4-9.21,40.86-15.39,22.65-10.39,42.7-23.07,61.37-39.47,7.2-6.33,13.86-12.47,20.33-19.63,19.68-21.75,36.01-45.7,48.05-72.52,6.66-14.84,15.75-41.27,17.68-56.69l1.67-13.28c.4-3.2.79-6.38,1.04-9.6l.9-11.58c.53-6.87.73-13.87.05-20.71l-.92-9.31-.69-9.61-2.01-14.54c-.19-1.4-.6-3.26-.91-4.77l-1.87-9.05-1.09-5.09-1.03-4.68c-.59-2.68-.64-5.04,1.57-7.3l25.52-26.05,13.62-13.85c6.59-6.7,13.13-13.25,20.25-19.33l8-6.82c5.24-4.47,10.18-8.68,15.68-12.85,14.23-10.79,29.22-19.73,45.21-27.56l8.1-3.97c3.19-1.56,6.37-2.62,9.99-2.95l3.49,6.47c3.9,7.25-1.96,9.39-8.59,15.08l-25,21.47-8.22,6.75-12.43,10.39c-1.17.98-2.43,2.71-3.53,4.13l2.43,8.65,5.82,18.7c1.21,3.88,2.07,7.88,2.97,11.88l4.8,21.24c.49,2.17,2.51,2.55,4.26,2.93l9.73,2.11,14.64,3.16,5.2,1.13,9.03,1.8,5,1.11,3.69.78,17.96,3.46c3.69.71,7.17,1.41,10.89,3.1l.22,75.06c.02,5.21.69,9.58-.41,14.83-2.64.83-5.26,1.52-8.14,2.02l-7.48,1.3-4.35,1.04-5.7,1.13-9.57,1.92-4.2.86-9.02,1.84-5.71,1.22-4.51.99-8.99,1.87-5.22,1.08-4.8.99c-1.14.23-2.51,1.98-2.78,3.44-3.25,17.46-7.77,34.11-13.2,50.95-.76,2.37-1.17,5.01-1.58,7.42,1.48,2.22,3.95,3.76,5.94,5.54l22.52,20.14,15.06,13.41,11.38,9.64c1.55,1.31,3.62,3.22,4.35,5.12.8,2.09-.77,4.77-1.84,6.61l-24.19,41.76-17.98,31.48c-4.35-.1-7.6-1.75-11.58-3.14l-46.78-16.29-16.76-5.64c-3.92-1.32-7.3,4.91-11.51,9.4l-11.9,12.7-18.06,17.81c-2.42,2.39-4.94,4.4-7.76,6.9l14.21,42.43,8.1,24.24c.95,2.83,2.38,6.13,1.89,9.07-3.01,3.19-6.9,4.56-10.58,6.69l-36.73,21.31-21.79,12.77-8.21,4.49c-1.09.6-3.72.51-4.5-.39l-12.26-14.02-13.85-16.22-12.99-14.24-5.91-6.81c-1.37-1.58-3.07-4.23-5.18-4.97s-5.15.58-7.33,1.34c-15.04,5.28-29.83,9.67-45.43,12.61-3.65.69-6.78,1.48-10.4,2.6l-1.39,6.99-3.14,15.55-1.87,8.54-7.38,36.6-1.61,8.79c-4.48.23-8.1.51-12.35.41-7.05-.16-13.89.35-20.99.05l-13.13-.56Z"/>
  <path class="st4" d="M707.16,272.52c-18.73-16.32-40.87-29.18-63.4-40.29-11.1-5.47-21.99-10.05-33.81-13.83-7.21-2.3-14-4.4-21.37-6.18-28.71-6.96-30.54-7.36-60.61-9.5-5.53-.39-10.81-.14-15.97.39l-.15-10.93.22-118.04,44.25-.13c1,2.51,1.66,4.99,2.2,7.6l4.84,23.59,5.64,26.7,4.15,19.77c3.08,1.35,6.22,2.3,9.48,3.04l7.33,1.68c8.12,1.86,15.91,4.05,23.84,6.71l17.14,5.74c2.28.76,4.74,1.39,7.2,1.8,3.54-3.09,6.17-6.25,9.18-9.74l19.68-22.83,12.15-14.06,8.69-10.23c.92-1.09,2.64-2.32,4.02-2.58l11.82,6.17,33.11,19.07,14.21,8.05,17.07,9.71c1.15,1.81.33,4.68-.47,6.98l-23.16,66.67c-.84,2.42-.54,3.98,1.19,5.56l4.7,4.31c.48.44,1.13,1.49,1.3,2.03.14.43-.73,1.38-1.13,1.6-11.7,6.53-34.46,22.4-43.37,31.17Z"/>
  <path class="st1" d="M874.94,267.28l15.49,26.68c.28.48.54,2.03.29,2.53s-1.04,1.08-1.81,1.42c-14.11,6.18-27.48,13.13-40.41,21.52l-11.72,7.6-14.34,10.68c-14.49,10.8-28.49,23.93-41.32,36.69l-25.65,25.5-19.54,19.76-30.32,31.04-14.09,14.41-6.24,6.3-26.17,26.09-17,17.21-8.76,8.87-9.35,9.47-9.89,10.02-44.07,44.59-45.3,45.67-10.61,10.56c-.5.49-1.43,1.07-1.96,1.32-1.28-3.01-.25-6.34-.25-9.83l.02-56.18,24.21-25.46,22.36-22.6,49.9-50.14,18.6-18.44,24-24.3,13.25-13.6,36.37-36.33,11.62-11.78c6.38-6.47,12.76-12.47,19.43-18.66l17.72-16.46c9.56-8.88,19.36-16.85,29.68-24.88,5.8-4.51,11.78-8.1,17.87-12.28,16.48-11.32,40.43-24.08,59.28-30.8l15.9-5.67c1.03-.37,2.04-.61,2.86-.52Z"/>
  <path class="st3" d="M874.94,267.28c-.82-.09-1.83.15-2.86.52l-15.9,5.67c-18.84,6.72-42.8,19.49-59.28,30.8-6.09,4.18-12.07,7.76-17.87,12.28-10.32,8.03-20.12,16-29.68,24.88l-17.72,16.46c-6.66,6.19-13.05,12.19-19.43,18.66l-11.62,11.78-36.37,36.33-13.25,13.6-24,24.3-18.6,18.44-49.9,50.14-22.36,22.6-24.21,25.46-.18-14.56.11-52.7c0-.79-.7-2.13-.91-2.25,3.29-4.2,7.6-7.62,11.61-11.62l19.34-19.26,8.87-9.01,47.13-47.66,68.52-69.13,21.02-21.09,15.86-15.52c19.56-19.14,44.97-40.69,68.68-54.16,1.93-1.1,3.79-.27,5.06,1.12l5.51,5.99c3.17,3.45,5.97,6.7,9.45,10.06,8.43-2.24,15.78-5.11,23.98-7.84l44.74-14.91,5.78-1.94c2.16,1.38,3.23,3.73,4.52,5.91l3.95,6.66Z"/>
  <path class="st0" d="M510.93,509.68c.21.12.91,1.46.91,2.25l-.11,52.7.18,14.56-.02,56.18c0,3.48-1.03,6.81.25,9.83l-.23,23.76h-33.42s-.07-31.44-.07-31.44l-33.33-.02-.08-31.52h-21.19s-11.15-.11-11.15-.11l-.14-31.27-33.18-.14c-.32-2.29-.28-4.53.08-6.84l-.03-24.35-33.42-.05-.05-62.35,33.47-.2.16-31.17,33.14-.04.1,31.25,33.07.1.3,31.24,32.67.1.27,28.09c8.52-7.75,15.75-15.37,23.56-23.29,2.69-2.73,5.14-5.68,8.26-7.27Z"/>
  <path class="st1" d="M707.16,272.52l-7.2,7.09c-4.21,4.14-9,7.57-13.18,11.79l-14.18,14.31c-.65.66-2.01,1.48-2.76,1.44s-2.14-.75-2.95-1.36c-15.41-11.64-31.22-22.12-49-29.92-27.01-11.85-50.17-18.36-79.7-21.01l-10.8-.97-15.42-.38.04-50.41c5.16-.53,10.44-.78,15.97-.39,30.06,2.15,31.89,2.54,60.61,9.5,7.37,1.79,14.16,3.88,21.37,6.18,11.82,3.77,22.71,8.35,33.81,13.83,22.54,11.11,44.67,23.97,63.4,40.29Z"/>
</svg>